<?xml version="1.0" standalone="no"?><!DOCTYPE svg PUBLIC "-//W3C//DTD SVG 1.1//EN" "http://www.w3.org/Graphics/SVG/1.1/DTD/svg11.dtd"><svg t="1725731313188" class="icon" viewBox="0 0 1024 1024" version="1.1" xmlns="http://www.w3.org/2000/svg" p-id="11722" xmlns:xlink="http://www.w3.org/1999/xlink" width="200" height="200"><path d="M923.136 515.584l-177.152-69.12h6.144l177.152 69.12H924.672h-1.536" fill="#224365" p-id="11723"></path><path d="M929.792 515.584L752.64 446.464h3.072c0.512 0 1.024 0 1.024 0.512 0.512 0 1.024 0 1.024 0.512l177.152 69.12c-0.512 0-1.024-0.512-1.024-0.512-0.512 0-1.024 0-1.536-0.512h-2.56" fill="#214162" p-id="11724"></path><path d="M935.424 516.608L757.76 447.488h2.048l177.152 69.12h-0.512-0.512-0.512" fill="#203F5F" p-id="11725"></path><path d="M873.472 807.936L701.44 723.968l8.192-194.048 175.104 74.24z" fill="#1A334D" p-id="11726"></path><path d="M699.392 842.752L532.48 754.688l168.96-30.72 172.032 83.968z" fill="#204060" p-id="11727"></path><path d="M640 929.28l-163.84-93.184c-2.048-1.536-4.608-3.072-6.144-5.12-2.048-2.048-3.584-4.096-4.608-6.656-1.536-2.56-2.048-5.12-3.072-8.192-0.512-3.072-1.024-6.144-1.024-9.728l164.352 91.648c0 3.584 0 7.168 0.512 10.24 0.512 3.072 1.536 6.144 3.072 8.704s3.072 5.12 4.608 7.168c2.048 2.048 4.096 4.096 6.144 5.12" fill="#1B3550" p-id="11728"></path><path d="M675.328 553.984L505.856 480.256l240.64-33.792 176.64 69.12zM625.664 898.56l-164.352-91.648 7.68-281.088 167.936 76.8z" fill="#144F7F" p-id="11729"></path><path d="M636.928 602.624l-167.936-76.8v-2.048-2.048c0-0.512 0-1.536 0.512-2.048 0-0.512 0-1.536 0.512-2.048l167.936 76.288c0 0.512-0.512 1.536-0.512 2.048 0 0.512 0 1.536-0.512 2.048v4.608" fill="#144F7F" p-id="11730"></path><path d="M637.952 593.92l-167.936-76.288c0-0.512 0-1.024 0.512-1.536 0-0.512 0.512-1.024 0.512-1.536 0-0.512 0.512-1.024 0.512-1.536 0-0.512 0.512-1.024 0.512-1.536l167.936 75.776c0 0.512-0.512 1.024-0.512 1.536 0 0.512-0.512 1.024-0.512 1.536 0 0.512-0.512 1.024-0.512 1.536 0 0.512-0.512 1.024-0.512 2.048M640 586.752L472.064 510.976c0-0.512 0.512-1.024 0.512-1.536 0-0.512 0.512-1.024 0.512-1.536 0-0.512 0.512-1.024 0.512-1.536 0-0.512 0.512-1.024 0.512-1.536l168.448 75.776c0 0.512-0.512 1.024-0.512 1.536 0 0.512-0.512 1.024-0.512 1.536 0 0.512-0.512 1.024-0.512 1.536-0.512 0.512-1.024 1.024-1.024 1.536" fill="#144F7F" p-id="11731"></path><path d="M642.56 581.12L474.112 505.344c0-0.512 0.512-1.024 0.512-1.024 0-0.512 0.512-1.024 0.512-1.024 0-0.512 0.512-1.024 0.512-1.024 0-0.512 0.512-1.024 0.512-1.024l168.448 75.264c0 0.512-0.512 1.024-0.512 1.024l-0.512 1.024c0 0.512-0.512 1.024-0.512 1.024 0 0.512-0.512 1.024-0.512 1.536M645.12 576L476.672 500.736c0-0.512 0.512-0.512 0.512-1.024s0.512-0.512 0.512-1.024 0.512-0.512 1.024-1.024l1.024-1.024 168.448 75.264-1.024 1.024c-0.512 0.512-0.512 1.024-1.024 1.024-0.512 0.512-0.512 1.024-1.024 1.024 0.512 0 0.512 0.512 0 1.024M648.192 571.392L479.744 496.128l1.024-1.024 1.024-1.024 1.024-1.024 1.024-1.024 168.96 74.752-1.024 1.024-1.024 1.024c-0.512 0.512-0.512 1.024-1.024 1.024l-1.536 1.536" fill="#144F7F" p-id="11732"></path><path d="M652.288 566.784l-168.96-74.752 1.024-1.024 1.024-1.024c0.512-0.512 1.024-0.512 1.536-1.024 0.512-0.512 1.024-0.512 1.536-1.024l168.96 74.24c-0.512 0.512-1.024 0.512-1.536 1.024-0.512 0.512-1.024 0.512-1.536 1.024-0.512 0.512-1.024 1.024-1.536 1.024s0 1.024-0.512 1.536M657.92 562.176l-168.96-74.24c1.536-1.024 2.56-2.048 4.096-2.56 1.536-1.024 2.56-1.536 4.096-2.048l4.608-1.536c1.536-0.512 3.072-0.512 4.608-1.024l169.472 73.728c-1.536 0-3.072 0.512-4.608 1.024l-4.608 1.536c-1.536 0.512-3.072 1.536-4.608 2.56-1.536 0.512-3.072 1.024-4.096 2.56" fill="#144F7F" p-id="11733"></path><path d="M923.136 515.584c4.608-0.512 9.216 0 12.8 1.024 4.096 1.536 7.168 4.096 10.24 7.168 3.072 3.072 5.12 7.168 6.656 11.776 1.536 4.608 2.048 9.728 1.536 15.36l-16.896 282.624c-0.512 5.632-1.536 10.752-3.584 15.872-2.048 5.12-4.608 9.728-7.68 13.824-3.072 4.096-7.168 7.68-11.264 10.752-4.096 3.072-8.704 5.12-13.312 5.632l-242.688 51.2c-5.12 1.024-9.728 1.024-13.824-0.512-4.096-1.024-8.192-3.584-11.264-6.656-3.072-3.072-5.632-7.168-7.168-11.264-1.536-4.608-2.56-9.728-2.048-15.36l11.264-295.424c0-6.144 1.536-11.776 3.584-17.408 2.048-5.632 5.12-10.752 8.704-14.848 3.584-4.608 7.68-8.192 12.288-11.264 4.608-3.072 9.216-4.608 14.336-5.632l248.32-36.864z m-49.664 292.352l11.264-203.776-176.128 29.696-9.216 208.896 174.08-34.816" fill="#336699" p-id="11734"></path><path d="M950.272 45.056L766.464 0h6.144l183.808 44.544H951.808c-0.512 0-1.024 0-1.536 0.512" fill="#224365" p-id="11735"></path><path d="M956.928 45.056L773.12 0.512h2.048l183.808 44.544h-0.512-0.512-1.024c0.512 0 0.512 0 0 0" fill="#214162" p-id="11736"></path><path d="M664.064 465.408L493.568 396.288c-3.072-1.024-5.632-3.072-8.192-5.12s-4.608-5.12-6.656-7.68c-1.536-3.072-3.072-6.656-4.096-10.24-1.024-3.584-1.536-7.68-1.024-11.776l169.984 67.584c0 4.608 0 8.704 1.024 12.288 1.024 4.096 2.048 7.68 4.096 10.752 1.536 3.072 4.096 6.144 6.656 8.192 2.56 2.048 5.632 4.096 8.704 5.12" fill="#1B3550" p-id="11737"></path><path d="M695.808 65.024l-175.616-47.616L766.464 0l183.808 45.056z" fill="#427AA8" p-id="11738"></path><path d="M643.584 428.544L473.6 360.96l8.192-297.472 174.08 50.688z" fill="#144F7F" p-id="11739"></path><path d="M655.872 114.176l-174.08-50.688v-2.56-2.048c0-0.512 0-1.536 0.512-2.048 0-0.512 0.512-1.536 0.512-2.048l174.08 50.176c0 1.024-0.512 1.536-0.512 2.56s0 1.536-0.512 2.56v4.096M656.896 104.448l-174.08-50.176c0-0.512 0-1.024 0.512-1.536 0-0.512 0.512-1.024 0.512-1.536 0-0.512 0.512-1.024 0.512-1.536 0-0.512 0.512-1.024 0.512-1.536l174.08 49.664c0 0.512-0.512 1.024-0.512 1.536 0 0.512-0.512 1.024-0.512 2.048 0 0.512-0.512 1.024-0.512 2.048 0 0 0 0.512-0.512 1.024M658.944 97.28l-174.08-49.664c0-0.512 0.512-1.024 0.512-1.536 0-0.512 0.512-1.024 0.512-1.536 0.512 0 0.512-0.512 0.512-1.024s0.512-1.024 0.512-1.536l174.592 49.152c0 0.512-0.512 1.024-0.512 1.536s-0.512 1.024-0.512 1.536-0.512 1.024-0.512 1.536c-0.512 0.512-0.512 1.024-1.024 1.536" fill="#5B90BC" p-id="11740"></path><path d="M661.504 91.648l-174.08-49.664c0-0.512 0.512-1.024 0.512-1.024 0-0.512 0.512-1.024 0.512-1.024 0-0.512 0.512-1.024 0.512-1.024 0-0.512 0.512-1.024 0.512-1.024l174.592 49.152c-0.512 0.512-0.512 1.024-0.512 1.024l-0.512 1.024c0 0.512-0.512 1.024-0.512 1.536-0.512 0-0.512 0.512-1.024 1.024M664.576 86.528L489.984 37.376c0-0.512 0.512-1.024 0.512-1.024 0-0.512 0.512-0.512 1.024-1.024l1.024-1.024 1.024-1.024 174.592 48.64-1.024 1.024c-0.512 0.512-0.512 1.024-1.024 1.024-0.512 0.512-0.512 1.024-1.024 1.024 0 0.512-0.512 1.024-0.512 1.536M667.648 81.408L493.056 32.768l1.024-1.024c0.512-0.512 0.512-1.024 1.024-1.024l1.024-1.024 1.024-1.024 175.104 48.64-1.024 1.024-1.024 1.024c-0.512 0.512-0.512 1.024-1.024 1.024-0.512 0.512-1.024 1.024-1.536 1.024" fill="#5B90BC" p-id="11741"></path><path d="M671.744 76.8L497.152 28.672l1.024-1.024c0.512-0.512 1.024-0.512 1.536-1.024 0.512-0.512 1.024-0.512 1.536-1.024 0.512-0.512 1.024-0.512 1.536-1.024l175.104 48.128c-0.512 0.512-1.024 0.512-1.536 1.024-0.512 0.512-1.024 0.512-1.536 1.024-0.512 0.512-1.024 1.024-1.536 1.024-0.512 0.512-1.024 1.024-1.536 1.024M677.376 72.192L502.272 24.064c1.536-1.024 2.56-2.048 4.096-2.56 1.536-0.512 3.072-1.536 4.608-2.048l4.608-1.536c1.536-0.512 3.072-0.512 4.608-0.512l175.616 47.616c-1.536 0-3.072 0.512-5.12 0.512l-4.608 1.536c-1.536 0.512-3.072 1.536-4.608 2.048-1.536 1.536-2.56 2.048-4.096 3.072" fill="#5B90BC" p-id="11742"></path><path d="M950.272 45.056c4.608-0.512 9.216 0.512 13.312 2.56s7.68 4.608 10.24 8.704c3.072 3.584 5.12 8.192 6.656 13.312 1.536 5.12 2.048 10.752 1.536 16.896l-17.92 299.52c-0.512 5.632-1.536 11.264-3.584 16.896-2.048 5.12-4.608 10.24-8.192 14.336-3.072 4.096-7.168 7.68-11.264 10.752-4.096 2.56-8.704 4.608-13.312 5.12l-248.832 35.328c-5.12 0.512-9.728 0-14.336-1.536-4.608-1.536-8.192-4.096-11.264-7.68-3.072-3.584-5.632-7.68-7.68-12.8-1.536-5.12-2.56-10.752-2.048-16.896l12.288-314.368c0-6.144 1.536-12.288 3.584-17.92 2.048-5.632 5.12-10.752 8.704-15.36 3.584-4.608 7.68-8.192 12.288-10.752 4.608-2.56 9.728-4.608 14.848-4.608l254.976-21.504z" fill="#336699" p-id="11743"></path><path d="M525.312 577.024l-164.352-76.8h8.192l164.864 76.8H525.312" fill="#224365" p-id="11744"></path><path d="M532.992 577.024l-164.864-76.8h3.072c0.512 0 1.024 0 1.536 0.512 0.512 0 1.024 0 1.536 0.512l164.864 76.8c-0.512 0-1.024-0.512-1.536-0.512-0.512 0-1.024 0-1.536-0.512h-3.072" fill="#214162" p-id="11745"></path><path d="M538.624 578.048L373.76 501.248c0.512 0 0.512 0 1.024 0.512 0.512 0 0.512 0 1.024 0.512 0.512 0 0.512 0.512 1.024 0.512s0.512 0.512 1.024 0.512l165.376 76.8c-0.512 0-0.512-0.512-1.024-0.512s-0.512-0.512-1.024-0.512-0.512 0-1.024-0.512-1.024-0.512-1.536-0.512" fill="#203F5F" p-id="11746"></path><path d="M212.992 1016.32l-149.504-103.936c-2.048-1.536-4.096-3.072-5.632-5.12-1.536-2.048-3.072-4.096-4.608-6.656-1.024-2.56-2.048-5.12-2.56-8.192-0.512-3.072-1.024-5.632-1.024-9.216l148.992 102.4c0 3.584 0.512 6.656 1.024 9.728 0.512 3.072 1.536 5.632 3.072 8.192 1.024 2.56 2.56 5.12 4.608 7.168 1.024 2.56 3.072 4.096 5.632 5.632" fill="#30648E" p-id="11747"></path><path d="M244.736 620.544l-154.624-82.432 270.336-37.888 164.864 76.8z" fill="#144F7F" p-id="11748"></path><path d="M198.656 986.112l-148.992-102.4v-296.448l152.064 85.504z" fill="#427AA8" p-id="11749"></path><path d="M201.728 672.768L49.664 587.264v-2.56-2.56c0-0.512 0-1.536 0.512-2.048 0-0.512 0-1.536 0.512-2.048l152.064 84.992c0 1.024-0.512 1.536-0.512 2.56s0 1.536-0.512 2.56v2.56c0.512 0.512 0 1.536 0 2.048" fill="#5B90BC" p-id="11750"></path><path d="M202.752 663.04L50.688 578.048c0-0.512 0-1.024 0.512-1.536 0-0.512 0.512-1.024 0.512-1.536 0-0.512 0.512-1.024 0.512-1.536 0-0.512 0.512-1.024 0.512-1.536l152.576 84.992c0 0.512-0.512 1.024-0.512 2.048s-0.512 1.024-0.512 2.048c0 0.512-0.512 1.024-0.512 2.048s-0.512-0.512-1.024 0M205.312 655.872l-152.576-84.992c0-0.512 0.512-1.024 0.512-1.536 0-0.512 0.512-1.024 0.512-1.536s0.512-1.024 0.512-1.536c0-0.512 0.512-1.024 0.512-1.536l152.576 84.48c0 0.512-0.512 1.024-0.512 1.536s-0.512 1.024-0.512 1.536c0 0.512-0.512 1.024-0.512 1.536-0.512 1.024-0.512 1.536-0.512 2.048" fill="#5B90BC" p-id="11751"></path><path d="M207.36 649.728l-152.576-84.48c0-0.512 0.512-1.024 0.512-1.536 0-0.512 0.512-1.024 0.512-1.024l0.512-1.024c0-0.512 0.512-1.024 0.512-1.024l152.576 83.968c-0.512 0.512-0.512 1.024-1.024 1.536-0.512 0.512-0.512 1.024-0.512 1.536s-0.512 1.024-0.512 1.536c0.512-0.512 0.512 0 0 0.512M210.432 644.096l-152.576-83.968c0.512-0.512 0.512-1.024 1.024-1.024 0.512-0.512 0.512-1.024 1.024-1.024 0.512-0.512 0.512-1.024 1.024-1.024l1.024-1.024L215.04 640c-0.512 0.512-0.512 1.024-1.024 1.024-0.512 0.512-0.512 1.024-1.024 1.024s-0.512 1.024-1.024 1.024-1.024 1.024-1.536 1.024" fill="#5B90BC" p-id="11752"></path><path d="M214.016 639.488l-153.088-83.968c0.512-0.512 0.512-1.024 1.024-1.024 0.512-0.512 0.512-1.024 1.024-1.024l1.024-1.024 1.024-1.024L218.112 634.88c-0.512 0.512-0.512 1.024-1.024 1.024-0.512 0.512-0.512 1.024-1.024 1.024-0.512 0.512-0.512 1.024-1.024 1.024-0.512 0.512-0.512 1.024-1.024 1.536M218.624 634.368l-153.088-83.456c0.512-0.512 1.024-1.024 1.536-1.024 0.512-0.512 1.024-1.024 1.536-1.024 0.512-0.512 1.024-1.024 1.536-1.024 0.512-0.512 1.024-0.512 1.536-1.024L225.28 629.76c-0.512 0.512-1.024 1.024-1.536 1.024-0.512 0.512-1.024 1.024-1.536 1.024l-1.536 1.536c-1.536 0-1.536 0.512-2.048 1.024" fill="#5B90BC" p-id="11753"></path><path d="M224.256 629.248l-153.6-82.944 4.608-3.072c1.536-1.024 3.072-1.536 4.608-2.56 1.536-0.512 3.072-1.024 5.12-1.536 1.536-0.512 3.584-1.024 5.12-1.024l154.112 82.432c-2.048 0.512-3.584 0.512-5.12 1.024-1.536 0.512-3.584 1.024-5.12 2.048-1.536 0.512-3.584 1.536-5.12 2.56l-4.608 3.072" fill="#5B90BC" p-id="11754"></path><path d="M525.312 577.024c5.12-1.024 10.24-0.512 14.848 1.024 4.608 1.536 8.704 4.096 11.776 7.68 3.072 3.584 6.144 7.68 7.68 12.8 1.536 5.12 2.56 10.24 2.56 16.384l-10.24 298.496c0 5.632-1.536 11.264-3.584 16.896-2.048 5.632-5.12 10.24-8.192 14.848-3.584 4.608-7.68 8.192-12.288 11.264-4.608 3.072-9.728 5.12-14.848 6.144l-273.92 57.856c-5.632 1.024-10.752 1.024-15.872 0s-9.216-3.584-12.8-6.656c-3.584-3.072-6.656-7.168-8.704-12.288-2.048-4.608-3.072-10.24-3.072-16.384l3.584-313.344c0-6.144 1.536-12.288 3.584-18.432 2.048-5.632 5.12-11.264 9.216-15.872 4.096-4.608 8.192-8.704 13.312-11.776 5.12-3.072 10.752-5.12 16.384-6.144l280.576-42.496z" fill="#336699" p-id="11755"></path><path d="M540.672 77.824L370.176 28.16h8.192l171.008 49.152H543.232c-1.024 0.512-1.536 0.512-2.56 0.512" fill="#224365" p-id="11756"></path><path d="M548.864 77.824L377.856 28.672h4.096l171.008 49.664H549.888c-0.512 0-1.024-0.512-1.024-0.512" fill="#214162" p-id="11757"></path><path d="M491.52 403.968L326.144 336.384l4.096-217.088 167.936 55.296z" fill="#1A334D" p-id="11758"></path><path d="M288.768 430.08L131.072 358.912l195.072-22.528L491.52 403.968z" fill="#1F3D5C" p-id="11759"></path><path d="M224.768 525.312L70.144 448c-3.072-1.536-5.632-3.584-8.192-5.632-2.56-2.56-4.608-5.12-6.656-8.192-1.536-3.072-3.072-6.656-4.096-10.24-1.024-3.584-1.536-7.68-1.536-11.776l154.112 75.264c0 4.096 0.512 8.192 1.536 12.288 1.024 3.584 2.56 7.168 4.096 10.752 2.048 3.072 4.096 6.144 6.656 8.704s5.632 4.608 8.704 6.144" fill="#30648E" p-id="11760"></path><path d="M251.392 100.864L92.16 48.128l278.016-19.968 170.496 49.664zM203.776 487.936l-153.6-75.264V97.28l157.696 56.32z" fill="#427AA8" p-id="11761"></path><path d="M207.872 153.6L50.176 97.28v-2.56-2.56c0-1.024 0-1.536 0.512-2.56 0-1.024 0-1.536 0.512-2.56l157.184 55.808c0 1.024-0.512 1.536-0.512 2.56s0 1.536-0.512 2.56v2.56c0.512 1.024 0.512 2.048 0.512 3.072" fill="#5B90BC" p-id="11762"></path><path d="M208.896 142.848L51.2 87.552c0-0.512 0-1.024 0.512-2.048 0-0.512 0.512-1.024 0.512-2.048 0-0.512 0.512-1.024 0.512-2.048 0-0.512 0.512-1.024 0.512-1.536l157.696 55.296c0 0.512-0.512 1.024-0.512 2.048 0 0.512-0.512 1.536-0.512 2.048 0 0.512-0.512 1.536-0.512 2.048-0.512 0.512-0.512 1.024-0.512 1.536M210.944 135.168L53.248 79.872c0-0.512 0.512-1.024 0.512-1.536 0-0.512 0.512-1.024 0.512-1.536 0-0.512 0.512-1.024 0.512-1.536 0-0.512 0.512-1.024 0.512-1.536l157.696 54.784c0 0.512-0.512 1.024-0.512 1.536 0 0.512-0.512 1.024-0.512 1.536 0 0.512-0.512 1.024-0.512 1.536-0.512 1.024-0.512 1.536-0.512 2.048" fill="#5B90BC" p-id="11763"></path><path d="M213.504 129.024L55.808 74.24c0-0.512 0.512-1.024 0.512-1.536 0-0.512 0.512-1.024 0.512-1.536 0-0.512 0.512-1.024 0.512-1.024 0-0.512 0.512-1.024 1.024-1.024l157.696 54.272c-0.512 0.512-0.512 1.024-1.024 1.536s0 1.024 0 1.536c-0.512 0.512-0.512 1.024-0.512 1.536-0.512 0-1.024 0.512-1.024 1.024M216.576 123.392L58.368 69.12c0.512-0.512 0.512-1.024 1.024-1.024 0.512-0.512 0.512-1.024 1.024-1.024 0.512-0.512 0.512-1.024 1.024-1.024 0.512-0.512 0.512-1.024 1.024-1.024L220.16 118.272c-0.512 0.512-0.512 1.024-1.024 1.024-0.512 0.512-0.512 1.024-1.024 1.024-0.512 0.512-0.512 1.024-1.024 1.536 0 1.024-0.512 1.024-0.512 1.536" fill="#5B90BC" p-id="11764"></path><path d="M220.16 118.272L61.952 64.512c0.512-0.512 0.512-1.024 1.024-1.024 0.512-0.512 0.512-1.024 1.024-1.024l1.024-1.024 1.024-1.024 158.208 53.76-1.024 1.024c-0.512 0.512-0.512 1.024-1.024 1.024-0.512 0.512-0.512 1.024-1.024 1.024-0.512 0.512-0.512 1.024-1.024 1.024M224.768 113.664l-158.72-53.76c0.512-0.512 1.024-1.024 1.536-1.024 0.512-0.512 1.024-1.024 1.536-1.024 0.512-0.512 1.024-0.512 1.536-1.024 0.512-0.512 1.024-0.512 1.536-1.024l158.72 53.248c-0.512 0.512-1.024 0.512-1.536 1.024-0.512 0.512-1.024 1.024-1.536 1.024-0.512 0.512-1.024 1.024-1.536 1.024l-1.536 1.536M230.912 108.544l-158.72-53.248c1.536-1.024 3.072-2.048 4.608-2.56 1.536-1.024 3.072-1.536 5.12-2.048 1.536-0.512 3.584-1.024 5.12-1.536 1.536-0.512 3.584-0.512 5.12-0.512l159.744 52.736c-2.048 0-3.584 0.512-5.632 1.024-2.048 0.512-3.584 1.024-5.12 1.536-1.536 0.512-3.584 1.536-5.12 2.048-2.048 0.512-3.584 1.536-5.12 2.56" fill="#5B90BC" p-id="11765"></path><path d="M540.672 77.824c5.632-0.512 10.752 0.512 15.36 2.56 4.608 2.048 8.704 5.12 12.288 9.216s6.144 8.704 7.68 14.336c1.536 5.632 2.56 11.264 2.56 17.92l-10.752 317.952c0 6.144-1.536 12.288-3.584 17.92-2.048 5.632-5.12 10.752-8.704 15.36-3.584 4.608-7.68 8.192-12.288 11.264-4.608 3.072-9.728 4.608-15.36 5.632L245.76 528.384c-5.632 1.024-11.264 0.512-16.384-1.536-5.12-1.536-9.728-4.608-13.312-8.192-3.584-3.584-6.656-8.192-8.704-13.312-2.048-5.12-3.072-11.264-3.072-17.92l3.584-333.824c0-6.656 1.536-13.312 3.584-19.456 2.048-6.144 5.632-11.776 9.728-16.384 4.096-4.608 8.704-8.704 13.824-11.776 5.12-3.072 10.752-4.608 16.896-5.12l288.768-23.04zM491.52 403.968l6.656-229.376-205.312 19.456-4.096 236.032L491.52 403.968" fill="#336699" p-id="11766"></path></svg>