<?xml version="1.0" standalone="no"?><!DOCTYPE svg PUBLIC "-//W3C//DTD SVG 1.1//EN" "http://www.w3.org/Graphics/SVG/1.1/DTD/svg11.dtd"><svg t="1725731286006" class="icon" viewBox="0 0 1024 1024" version="1.1" xmlns="http://www.w3.org/2000/svg" p-id="8880" xmlns:xlink="http://www.w3.org/1999/xlink" width="200" height="200"><path d="M192 96h-47.68a48 48 0 1 1 0-96h735.36a48 48 0 1 1 0 96H832V192h160v192a192 192 0 0 1-186.624 191.936A320.576 320.576 0 0 1 576 761.6V896h128.192c35.2 0 63.808 28.416 63.808 64 0 35.328-28.992 64-63.808 64H319.808A63.744 63.744 0 0 1 256 960c0-35.328 28.992-64 63.808-64H448v-134.4a320.576 320.576 0 0 1-229.376-185.664A192 192 0 0 1 32 384V192H192V96z m0 192H128V384a96 96 0 0 0 65.088 90.88A324.288 324.288 0 0 1 192 448V288z m640 0V448c0 9.088-0.384 18.048-1.088 26.88A96 96 0 0 0 896 384V288h-64zM482.24 495.68a64 64 0 0 1 59.52 0l26.688 14.016a31.488 31.488 0 0 0 45.632-33.216l-5.12-29.632a64 64 0 0 1 18.432-56.64l21.568-21.056a31.488 31.488 0 0 0-17.472-53.632l-29.76-4.352a64 64 0 0 1-48.192-35.008l-13.312-27.008a31.488 31.488 0 0 0-56.448 0l-13.312 27.008a64 64 0 0 1-48.192 35.008l-29.76 4.352a31.488 31.488 0 0 0-17.472 53.632l21.568 21.056a64 64 0 0 1 18.432 56.64l-5.12 29.632a31.488 31.488 0 0 0 45.632 33.216l26.688-14.08z" fill="#FF4029" p-id="8881"></path></svg>