<?xml version="1.0" standalone="no"?><!DOCTYPE svg PUBLIC "-//W3C//DTD SVG 1.1//EN" "http://www.w3.org/Graphics/SVG/1.1/DTD/svg11.dtd"><svg t="1725711258711" class="icon" viewBox="0 0 1024 1024" version="1.1" xmlns="http://www.w3.org/2000/svg" p-id="3683" xmlns:xlink="http://www.w3.org/1999/xlink" width="200" height="200"><path d="M768 597.333c0 36.267 27.733 64 64 64s64-27.733 64-64c0-17.066-6.4-34.133-19.2-44.8-10.667-12.8-27.733-19.2-44.8-19.2-36.267 0-64 27.734-64 64z m153.6-89.6c23.467 23.467 38.4 57.6 38.4 89.6 0 65.344-49.643 119.574-113.088 127.04C823.317 822.784 734.997 896 629.333 896H608c-123.733 0-224-100.267-224-224v-75.755C206.144 585.088 64 436.523 64 256v-64a64 64 0 0 1 64-64h96c17.067 0 32 14.933 32 32s-14.933 32-32 32h-96v64c0 153.6 123.733 277.333 277.333 277.333S682.667 409.6 682.667 256v-64h-96c-17.067 0-32-14.933-32-32s14.933-32 32-32h96a64 64 0 0 1 64 64v64c0 173.27-130.923 317.141-298.667 338.347V672c0 87.467 72.533 160 160 160h21.333c72.427 0 134.443-49.75 153.707-116.501C736.747 696.192 704 650.41 704 597.333c0-70.4 57.6-128 128-128 34.133 0 66.133 12.8 89.6 38.4z" p-id="3684" fill="#515151"></path></svg>