<?xml version="1.0" standalone="no"?><!DOCTYPE svg PUBLIC "-//W3C//DTD SVG 1.1//EN" "http://www.w3.org/Graphics/SVG/1.1/DTD/svg11.dtd"><svg t="1725712338745" class="icon" viewBox="0 0 1024 1024" version="1.1" xmlns="http://www.w3.org/2000/svg" p-id="2425" xmlns:xlink="http://www.w3.org/1999/xlink" width="200" height="200"><path d="M483.305 114.94a229.395 229.395 0 1 1 0 458.843A258.088 258.088 0 0 0 225.217 831.87a28.695 28.695 0 0 1-57.334 0A315.53 315.53 0 0 1 363.5 539.953 229.395 229.395 0 0 1 483.36 114.94z m0 57.336a172.06 172.06 0 1 0 0 344.119 172.06 172.06 0 0 0 0-344.119zM736.63 602.424c23.4 0 45.212 9.793 61.412 27.529 15.565 17.047 24.088 39.442 24.088 63.212 0 28.906-13.5 50.188-22.5 64.218-10.324 16.2-27 35.205-49.658 56.54l-10.06 9.265a652.765 652.765 0 0 1-39.97 33.618 30.917 30.917 0 0 1-32.982 2.647l-4.183-2.7c-0.793-0.636-18.793-14.506-39.864-33.618-27.795-25.146-47.912-47.33-59.717-65.859-5.4-8.47-10.59-16.94-14.771-26.735a94.87 94.87 0 0 1 16.359-100.588 82.588 82.588 0 0 1 61.412-27.53c19.481 0 38.54 7.148 53.629 20.066l1.588 1.323 1.588-1.324a82.853 82.853 0 0 1 53.63-20.065z m0 45.9a36.37 36.37 0 0 0-19.746 6.035l-4.5 3.336-30.971 25.834-31.395-26.153a37.005 37.005 0 0 0-23.822-9.052 36.795 36.795 0 0 0-27.583 12.652 48.97 48.97 0 0 0-7.941 51.671c2.329 5.453 5.24 10.588 11.17 19.958 9.264 14.507 26.788 33.83 51.883 56.542l13.023 11.488 14.665 12.282 1.112-0.793a708.456 708.456 0 0 0 20.964-17.895l5.665-5.029c25.042-22.71 42.565-41.983 51.882-56.595 11.223-17.47 15.248-27 15.248-39.44a47.435 47.435 0 0 0-12.071-32.189 36.74 36.74 0 0 0-27.53-12.652z" p-id="2426" fill="#515151"></path></svg>