<?xml version="1.0" standalone="no"?><!DOCTYPE svg PUBLIC "-//W3C//DTD SVG 1.1//EN" "http://www.w3.org/Graphics/SVG/1.1/DTD/svg11.dtd"><svg t="1725712260409" class="icon" viewBox="0 0 1024 1024" version="1.1" xmlns="http://www.w3.org/2000/svg" p-id="1617" xmlns:xlink="http://www.w3.org/1999/xlink" width="200" height="200"><path d="M733.866667 268.8c14.933333 14.933333 17.066667 40.533333 2.133333 57.6l-2.133333 2.133333-128 128c-17.066667 17.066667-42.666667 17.066667-59.733334 0-14.933333-14.933333-17.066667-40.533333-2.133333-57.6l2.133333-2.133333 128-128c17.066667-17.066667 42.666667-17.066667 59.733334 0zM448 384c23.466667 0 42.666667 19.2 42.666667 42.666667s-19.2 42.666667-42.666667 42.666666h-85.333333c-23.466667 0-42.666667-19.2-42.666667-42.666666s19.2-42.666667 42.666667-42.666667h85.333333z m213.333333 170.666667c23.466667 0 42.666667 19.2 42.666667 42.666666s-19.2 42.666667-42.666667 42.666667H362.666667c-23.466667 0-42.666667-19.2-42.666667-42.666667s19.2-42.666667 42.666667-42.666666h298.666666z m106.666667-405.333334H256c-23.466667 0-40.533333 17.066667-42.666667 40.533334V832c0 23.466667 17.066667 40.533333 40.533334 42.666667H768c23.466667 0 40.533333-17.066667 42.666667-40.533334V192c0-23.466667-17.066667-40.533333-40.533334-42.666667H768z m0-85.333333c70.4 0 128 57.6 128 128v640c0 70.4-57.6 128-128 128H256c-70.4 0-128-57.6-128-128V192c0-70.4 57.6-128 128-128h512z" p-id="1618" fill="#515151"></path></svg>