<?xml version="1.0" standalone="no"?><!DOCTYPE svg PUBLIC "-//W3C//DTD SVG 1.1//EN" "http://www.w3.org/Graphics/SVG/1.1/DTD/svg11.dtd"><svg t="1725714270440" class="icon" viewBox="0 0 1170 1024" version="1.1" xmlns="http://www.w3.org/2000/svg" p-id="1401" xmlns:xlink="http://www.w3.org/1999/xlink" width="228.515625" height="200"><path d="M167.919429 474.844998l378.732633 384.876614a41.179311 41.179311 0 0 1 2.633135 2.998849 43.37359 43.37359 0 0 0 67.437522-1.974852l354.741843-385.900611c63.707247-64.07296 83.016906-138.971032 55.442127-211.821109C996.625633 182.859546 916.973289 122.882575 833.151814 117.323733a233.032477 233.032477 0 0 0-191.926308 80.603199l-28.306205 33.938188a40.082171 40.082171 0 0 1-61.58611 0l-28.379347-34.011331a231.277053 231.277053 0 0 0-191.926309-80.530056c-81.992909 5.485699-163.181248 65.608955-197.338865 146.285297-17.919949 42.422736-37.229608 125.95164 34.230759 211.235968m414.206817 483.91176c-36.425039 0-70.509513-16.091383-93.91516-44.105017L109.697881 529.994554a42.569021 42.569021 0 0 1-2.047994-2.194279C34.360954 441.345665 16.953004 333.533401 59.814595 232.303976 106.040749 123.321431 212.902158 44.912512 325.688121 37.305676a311.660824 311.660824 0 0 1 256.511268 106.422553A311.733966 311.733966 0 0 1 838.491228 37.305676c114.029388 7.533693 222.35365 88.722032 263.386676 197.412008 38.765604 102.47285 12.287965 210.211971-72.411222 295.496298l-352.98642 383.92576c-23.405647 28.379347-57.709549 44.617015-94.354016 44.617016" fill="#515151" p-id="1402"></path></svg>