<?xml version="1.0" standalone="no"?><!DOCTYPE svg PUBLIC "-//W3C//DTD SVG 1.1//EN" "http://www.w3.org/Graphics/SVG/1.1/DTD/svg11.dtd"><svg t="1725712397441" class="icon" viewBox="0 0 1024 1024" version="1.1" xmlns="http://www.w3.org/2000/svg" p-id="3087" xmlns:xlink="http://www.w3.org/1999/xlink" width="200" height="200"><path d="M322 321h384c-3.376-40-19.458-70.9-55.842-80.712-0.892-0.238-2.24-0.848-3.134-1.082C623.016 232.358 605 223.9 605 197.644v-41.19C605 105.382 563.952 64 512.98 64 462.048 64 421 105.382 421 156.454v41.19c0 26.256-17.184 34.338-41.194 41.186-0.894 0.234-1.6 1.22-2.532 1.458C340.892 250.1 325.854 281 322 321z m191.98-192.21c15.23 0 27.582 12.39 27.582 27.664 0 15.308-12.352 27.7-27.582 27.7-15.228 0-27.544-12.39-27.544-27.7 0-15.274 12.316-27.664 27.544-27.664z" p-id="3088" fill="#515151"></path><path d="M811.222 127H663v27.976C663 176.142 681.386 193 702.014 193h74.424c13.334 0 24.198 10.87 24.88 24.39l0.17 654.2c-0.644 12.864-10.606 23.092-23.028 24.034l-528.836 0.062c-12.422-0.942-22.298-11.39-22.944-24.252l-0.17-654.028c0.644-13.522 11.716-24.406 25.012-24.406h74.462c20.626 0 37.014-16.858 37.014-38.024V127H216.736C186.5 127 161 152.116 161 183.15v720.76c0 31.004 25.5 57.09 55.738 57.09h594.484C841.498 961 865 934.914 865 903.91V183.15c0-31.034-23.502-56.15-53.778-56.15z" p-id="3089" fill="#515151"></path><path d="M289 385h224v64H289v-64zM289 769h320v64H289v-64zM289 641h258v64H289v-64zM289 513h416v64H289v-64z" p-id="3090" fill="#515151"></path></svg>