<?xml version="1.0" standalone="no"?><!DOCTYPE svg PUBLIC "-//W3C//DTD SVG 1.1//EN" "http://www.w3.org/Graphics/SVG/1.1/DTD/svg11.dtd"><svg t="1725712415592" class="icon" viewBox="0 0 1036 1024" version="1.1" xmlns="http://www.w3.org/2000/svg" p-id="3643" xmlns:xlink="http://www.w3.org/1999/xlink" width="202.34375" height="200"><path d="M226.378024 252.533205c0-65.178217 53.531759-118.006747 119.561253-118.006747h173.907277c18.01253 0 32.607614 14.410024 32.607615 32.188144 0 17.765783-14.595084 32.175807-32.607615 32.175808H345.939277c-30.016771 0-54.346024 24.020819-54.346024 53.642795v42.909301c0 17.765783-14.595084 32.175807-32.607614 32.175807-18.01253 0-32.607614-14.397687-32.607615-32.175807v-42.909301z m32.607615 439.826506c18.01253 0 32.607614 14.410024 32.607614 32.188144v42.909302c0 29.621976 24.329253 53.630458 54.346024 53.630457h173.907277c18.01253 0 32.607614 14.410024 32.607615 32.188145 0 17.765783-14.595084 32.188145-32.607615 32.188145H345.939277c-66.029494 0-119.561253-52.840867-119.561253-118.006747v-42.909302c0-17.765783 14.595084-32.188145 32.607615-32.188144z" p-id="3644" fill="#515151"></path><path d="M552.466506 204.183133c0-37.345157 37.715277-63.265928 73.209831-50.287037l217.384097 79.452531a53.66747 53.66747 0 0 1 35.482217 50.31171v452.669687a53.66747 53.66747 0 0 1-35.46988 50.299374l-217.384096 79.45253c-35.506892 12.978892-73.234506-12.929542-73.234506-50.287036V204.183133z m95.861205-110.653687c-78.095422-28.536289-161.088771 28.474602-161.088771 110.666024v611.599422c0 82.191422 83.005687 139.202313 161.088771 110.666024l217.384096-79.477205c46.91894-17.148916 78.046072-61.291952 78.046073-110.653687V283.660337c0-49.374072-31.127133-93.517108-78.033735-110.666024l-217.384097-79.45253zM279.403952 401.420337a32.916048 32.916048 0 0 1 46.117012 0l86.953638 85.818603a31.892048 31.892048 0 0 1 0 45.512482l-86.953638 85.818602a32.916048 32.916048 0 0 1-46.117012 0 31.892048 31.892048 0 0 1 0-45.512482l31.287518-30.880385H128.555181c-18.01253 0-32.607614-14.410024-32.607615-32.188145 0-17.765783 14.595084-32.175807 32.607615-32.175807h182.136289l-31.287518-30.880386a31.892048 31.892048 0 0 1 0-45.524819z" p-id="3645" fill="#515151"></path></svg>