<?xml version="1.0" standalone="no"?><!DOCTYPE svg PUBLIC "-//W3C//DTD SVG 1.1//EN" "http://www.w3.org/Graphics/SVG/1.1/DTD/svg11.dtd"><svg t="1725712225751" class="icon" viewBox="0 0 1024 1024" version="1.1" xmlns="http://www.w3.org/2000/svg" p-id="1402" xmlns:xlink="http://www.w3.org/1999/xlink" width="200" height="200"><path d="M940.34 115.452H80.465c-43.459 0-78.814 35.355-78.814 78.814v633.282c0 43.443 35.355 78.798 78.814 78.798h859.878c43.459 0 78.799-35.355 78.799-78.798V194.267c-0.002-43.46-35.34-78.815-78.8-78.815z m15.09 712.097c0 8.321-6.782 15.087-15.088 15.087H80.464c-8.338 0-15.088-6.766-15.088-15.087V194.267c0-8.321 6.751-15.104 15.088-15.104h859.878c8.306 0 15.087 6.782 15.087 15.104v633.282z" p-id="1403" fill="#515151"></path><path d="M565.76 619.943l-117.404-58.671 30.362-44.174a31.922 31.922 0 0 0 5.6-18.043v-93.249c0-69.233-55.342-123.47-125.99-123.47-70.618 0-125.96 54.237-125.96 123.47v93.249a31.935 31.935 0 0 0 5.88 18.463l30.952 43.49-122.537 58.702a31.848 31.848 0 0 0-18.105 28.73v59.184c0 17.592 14.247 31.855 31.855 31.855h391.1c17.607 0 31.856-14.263 31.856-31.855v-59.185a31.852 31.852 0 0 0-17.609-28.496z m-46.103 55.825h-327.39v-7.263l138.56-66.386a31.74 31.74 0 0 0 17.078-20.75 31.838 31.838 0 0 0-4.854-26.443l-46.974-66.043v-83.077c0-33.504 27.345-59.76 62.248-59.76 34.935 0 62.28 26.256 62.28 59.76v83.356l-45.513 66.185a31.844 31.844 0 0 0-4.604 26.006 31.894 31.894 0 0 0 16.613 20.533l132.554 66.246v7.636z m134.826-123.455h129.444c17.607 0 31.856-14.263 31.856-31.855s-14.248-31.856-31.856-31.856H654.483c-17.607 0-31.855 14.264-31.855 31.856 0 17.592 14.247 31.855 31.855 31.855zM857.188 353.56H654.483c-17.607 0-31.855 14.264-31.855 31.856 0 17.592 14.247 31.856 31.855 31.856h202.705c17.607 0 31.855-14.264 31.855-31.856 0-17.592-14.248-31.856-31.855-31.856z m0 279.45H654.483c-17.607 0-31.855 14.264-31.855 31.856 0 17.592 14.247 31.856 31.855 31.856h202.705c17.607 0 31.855-14.264 31.855-31.856 0-17.592-14.248-31.855-31.855-31.855z" p-id="1404" fill="#515151"></path></svg>