<?xml version="1.0" standalone="no"?><!DOCTYPE svg PUBLIC "-//W3C//DTD SVG 1.1//EN" "http://www.w3.org/Graphics/SVG/1.1/DTD/svg11.dtd"><svg t="1725711697232" class="icon" viewBox="0 0 1024 1024" version="1.1" xmlns="http://www.w3.org/2000/svg" p-id="2162" xmlns:xlink="http://www.w3.org/1999/xlink" width="200" height="200"><path d="M695.7 60.2H332.3c-45.4 0-82.5 33.7-82.5 74.9v749c0 41.2 37.2 74.9 82.6 74.9h363.3c45.4 0 82.6-33.7 82.6-74.9v-749c-0.1-41.1-37.2-74.9-82.6-74.9z m-267.5 53.7H600c10.9 0 19.9 11.9 19.9 26.6 0 14.7-8.9 26.6-19.9 26.6H428.2c-10.9 0.1-19.7-11.8-19.8-26.6 0-14.8 8.8-26.6 19.8-26.6zM514 929.1c-27.2 0.2-49.4-19.8-49.6-44.9v-0.1c0-24.9 22.2-44.9 49.6-44.9 27.4 0 49.5 20 49.5 44.9s-22.2 45-49.5 45zM725.4 801H302.6V218.3h422.7V801h0.1z" p-id="2163" fill="#515151"></path></svg>