<?xml version="1.0" standalone="no"?><!DOCTYPE svg PUBLIC "-//W3C//DTD SVG 1.1//EN" "http://www.w3.org/Graphics/SVG/1.1/DTD/svg11.dtd"><svg t="1725711661131" class="icon" viewBox="0 0 1024 1024" version="1.1" xmlns="http://www.w3.org/2000/svg" p-id="1602" xmlns:xlink="http://www.w3.org/1999/xlink" width="200" height="200"><path d="M378.72 936.736a25.808 25.808 0 0 0-11.296-13.344 25.6 25.6 0 0 0-35.008 9.232l27.232-47.168 19.072 51.28zM154.384 830.72c2.976-5.168 4.048-11.216 3.008-17.12a25.824 25.824 0 0 0-29.712-20.928l53.936-9.12L154.4 830.72z m309.184-124.224l44.512 25.696-130.816 226.576a25.6 25.6 0 0 1-35.008 9.248 25.808 25.808 0 0 1-11.296-13.344l-43.232-116.288a25.84 25.84 0 0 0-28.496-16.448l-122.32 20.704A25.824 25.824 0 0 1 107.2 821.712a25.408 25.408 0 0 1 3.008-17.12l133.312-230.912 44.096 26.416-105.664 183.008 68.384-11.568a77.52 77.52 0 0 1 85.488 49.36l24.16 65.008 103.584-179.408zM127.68 792.672a25.824 25.824 0 0 1 29.712 20.928c1.04 5.904-0.032 11.952-3.008 17.12l27.232-47.168-53.92 9.12z m251.04 144.064a25.808 25.808 0 0 0-11.296-13.344 25.6 25.6 0 0 0-35.008 9.232l27.232-47.168 19.072 51.28z m309.552-84l12.08-32.48a77.52 77.52 0 0 1 85.488-49.36l34.192 5.776 34.192 5.792-85.488-148.064a359.984 359.984 0 0 1-178.288 102.352l85.744 148.496 12.08-32.496z m115.2-260.96l122.496 212.16a25.6 25.6 0 0 1-9.504 34.944 25.808 25.808 0 0 1-17.2 3.104l-122.32-20.688a25.84 25.84 0 0 0-28.48 16.448l-43.248 116.272a25.824 25.824 0 0 1-32.96 15.28 25.408 25.408 0 0 1-13.344-11.168l-122.896-212.88a367.296 367.296 0 0 1-36.096 1.056l-122.656 212.48a25.6 25.6 0 0 1-35.008 9.232 25.808 25.808 0 0 1-11.296-13.344l-43.232-116.288a25.84 25.84 0 0 0-28.496-16.448l-122.32 20.704A25.824 25.824 0 0 1 107.2 821.712a25.408 25.408 0 0 1 3.008-17.12l113.12-195.904a354.032 354.032 0 0 1-75.936-219.504C147.392 191.904 308.48 32 507.152 32s359.76 159.92 359.76 357.184c0 75.232-23.424 145.04-63.424 202.608z m-524.912 2.896l-35.04-20.992-20.208 35.008a360.224 360.224 0 0 0 36.384 39.776l26.432-45.776a308.96 308.96 0 0 1-7.568-8z m165.168 146.176a359.68 359.68 0 0 1-184.032-92.384l-77.744 134.64 68.384-11.568a77.52 77.52 0 0 1 85.488 49.36l24.16 65.008 83.744-145.056z m0 0c18.304 3.232 37.072 5.088 56.192 5.456l8.16-14.112-44.512-25.696-19.84 34.352zM278.56 594.672l9.056 5.44-1.488 2.56a308.528 308.528 0 0 0 221.024 92.672c170.304 0 308.368-137.072 308.368-306.16 0-169.088-138.064-306.16-308.368-306.16s-308.368 137.072-308.368 306.16a303.84 303.84 0 0 0 79.776 205.488z m135.936-29.824c-18.864 9.84-40.896-6.048-37.28-26.88l18.432-106.784-78.144-75.632c-15.248-14.752-6.832-40.48 14.24-43.52l108-15.584 48.288-97.152c9.424-18.96 36.656-18.96 46.08 0l48.304 97.152 107.984 15.584c21.072 3.04 29.488 28.768 14.24 43.52l-78.144 75.632 18.448 106.768c3.6 20.848-18.432 36.736-37.28 26.896l-96.592-50.4-96.576 50.4z m84.624-101.824a25.856 25.856 0 0 1 23.904 0l62.464 32.608-11.936-69.056a25.408 25.408 0 0 1 7.392-22.576l50.528-48.896-69.824-10.08a25.68 25.68 0 0 1-19.36-13.952l-31.2-62.832-31.248 62.832c-3.744 7.52-10.976 12.752-19.344 13.952l-69.824 10.08 50.528 48.896c6.048 5.856 8.816 14.304 7.392 22.576l-11.936 69.056 62.464-32.608z" fill="#515151" p-id="1603"></path></svg>