<?xml version="1.0" standalone="no"?><!DOCTYPE svg PUBLIC "-//W3C//DTD SVG 1.1//EN" "http://www.w3.org/Graphics/SVG/1.1/DTD/svg11.dtd"><svg t="1725714280758" class="icon" viewBox="0 0 1024 1024" version="1.1" xmlns="http://www.w3.org/2000/svg" p-id="1677" xmlns:xlink="http://www.w3.org/1999/xlink" width="200" height="200"><path d="M512.13 576a316.29 316.29 0 0 1 178.66 55.07 32 32 0 1 0 36.06-52.87 381.09 381.09 0 0 0-79.36-41.28C719.77 491.66 768 411.55 768 320c0-141.38-114.62-256-256-256S256 178.62 256 320c0 91.73 48.43 172 121 217.18-145.26 55.3-249 196.5-249 362.03a32 32 0 0 0 64 0C192 721.05 335.48 576.08 511.85 576h0.14zM320 320c0-105.88 86.13-192 192-192s192 86.12 192 192-86 191.9-191.82 192h-0.33C406 511.93 320 425.83 320 320zM928 768h-96v-96a32 32 0 0 0-64 0v96h-96a32 32 0 0 0 0 64h96v96a32 32 0 0 0 64 0v-96h96a32 32 0 0 0 0-64z" fill="#515151" p-id="1678"></path></svg>