<?xml version="1.0" standalone="no"?><!DOCTYPE svg PUBLIC "-//W3C//DTD SVG 1.1//EN" "http://www.w3.org/Graphics/SVG/1.1/DTD/svg11.dtd"><svg t="1725772951112" class="icon" viewBox="0 0 1024 1024" version="1.1" xmlns="http://www.w3.org/2000/svg" p-id="6014" xmlns:xlink="http://www.w3.org/1999/xlink" width="200" height="200"><path d="M824.32 637.44c-54.42048 0-101.4784 31.4624-124.032 77.17888l-312.68864-55.13728a163.24608 163.24608 0 0 0-40.71424-131.82976l180.06016-151.0912A137.82528 137.82528 0 0 0 578.56 386.56c76.34944 0 138.24-61.89056 138.24-138.24s-61.89056-138.24-138.24-138.24-138.24 61.89056-138.24 138.24a137.61024 137.61024 0 0 0 28.22144 83.67616l-182.62528 153.2416A163.31264 163.31264 0 0 0 225.28 473.6c-90.48576 0-163.84 73.35424-163.84 163.84s73.35424 163.84 163.84 163.84c57.10336 0 107.36128-29.23008 136.68864-73.53344l324.4544 57.21088C691.2 856.97536 751.09376 913.92 824.32 913.92c76.34944 0 138.24-61.89056 138.24-138.24s-61.89056-138.24-138.24-138.24z m-245.76-455.68c36.70016 0 66.56 29.85984 66.56 66.56s-29.85984 66.56-66.56 66.56-66.56-29.85984-66.56-66.56 29.85984-66.56 66.56-66.56z m-353.28 547.84c-50.816 0-92.16-41.344-92.16-92.16s41.344-92.16 92.16-92.16 92.16 41.344 92.16 92.16-41.344 92.16-92.16 92.16z m599.04 112.64c-36.70016 0-66.56-29.85984-66.56-66.56s29.85984-66.56 66.56-66.56 66.56 29.85984 66.56 66.56-29.85984 66.56-66.56 66.56z" fill="#515151" p-id="6015"></path></svg>