<?xml version="1.0" standalone="no"?><!DOCTYPE svg PUBLIC "-//W3C//DTD SVG 1.1//EN" "http://www.w3.org/Graphics/SVG/1.1/DTD/svg11.dtd"><svg t="1725712576773" class="icon" viewBox="0 0 1024 1024" version="1.1" xmlns="http://www.w3.org/2000/svg" p-id="5549" xmlns:xlink="http://www.w3.org/1999/xlink" width="200" height="200"><path d="M512 938.666667a426.666667 426.666667 0 1 1 426.666667-426.666667 426.666667 426.666667 0 0 1-426.666667 426.666667z m0-768a341.333333 341.333333 0 1 0 341.333333 341.333333 341.333333 341.333333 0 0 0-341.333333-341.333333z" p-id="5550" fill="#515151"></path><path d="M426.666667 640a42.666667 42.666667 0 0 1-30.293334-12.373333 42.666667 42.666667 0 0 1 0-60.586667l72.96-72.533333V256a42.666667 42.666667 0 0 1 85.333334 0v256a42.666667 42.666667 0 0 1-12.373334 30.293333l-85.333333 85.333334A42.666667 42.666667 0 0 1 426.666667 640z" p-id="5551" fill="#515151"></path></svg>