<?xml version="1.0" standalone="no"?><!DOCTYPE svg PUBLIC "-//W3C//DTD SVG 1.1//EN" "http://www.w3.org/Graphics/SVG/1.1/DTD/svg11.dtd"><svg t="1725712652966" class="icon" viewBox="0 0 1024 1024" version="1.1" xmlns="http://www.w3.org/2000/svg" p-id="5856" xmlns:xlink="http://www.w3.org/1999/xlink" width="200" height="200"><path d="M818.50573 874.99l33.114 33.113c18.717 18.716 37.433 37.072 55.79 55.789 18.716 19.436 10.438 50.39-15.117 56.869-12.958 3.239-24.476-0.72-34.194-10.078l-89.622-89.623c-1.8-1.8-2.88-4.32-3.6-5.399-170.966 96.821-339.773 96.821-509.3 0.72-1.08 1.08-3.24 2.88-5.04 4.68l-90.701 90.701c-18.717 18.717-49.31 11.158-56.87-13.677-3.959-13.677-0.36-25.555 9.719-35.273 27.354-27.355 54.71-54.71 82.424-82.064 1.8-1.8 4.319-3.24 6.478-4.68C88.20973 773.489 29.90073 647.874 34.57973 495.984c4.32-133.174 57.589-245.472 155.49-335.814C379.03273-14.037 676.33473-2.88 854.85973 184.284c185.364 194.362 174.926 510.02-36.353 690.705zM101.88573 512.18c0 224.596 182.485 407.8 406.362 408.16 226.755 0 409.24-181.404 409.6-407.44 0.36-225.316-182.845-408.88-407.8-408.52-225.677 0-408.161 182.844-408.161 407.8zM199.06873 1.44c5.759 1.08 12.238 1.44 17.636 3.599 14.758 5.399 23.396 21.236 20.876 35.993-2.879 16.557-15.836 28.794-32.393 29.154-30.594 0.72-58.309 8.999-82.784 27.355-35.993 27.355-53.63 64.067-54.71 109.059-0.36 14.037-6.838 24.115-19.436 30.234-11.877 5.759-23.755 4.319-34.553-3.24C3.98573 226.756-0.33327 216.678 0.02673 205.16 2.18573 133.174 32.77973 76.665 92.16873 35.993 124.20273 14.037 160.19573 3.599 199.06773 1.44z m821 201.56c0.36 5.4-0.36 14.757-6.12 22.676-8.638 12.238-23.755 17.636-37.792 13.317-14.037-4.319-23.755-16.916-24.115-32.753-0.36-25.555-6.479-49.31-20.156-70.906-26.635-41.752-65.507-63.348-115.178-64.788-24.475-0.72-40.672-22.675-32.753-45.35C788.99273 11.157 801.58973 2.16 817.06573 2.52c75.945 2.16 134.254 35.633 174.206 100.06 18.357 29.514 26.995 61.908 28.795 100.42z m0 0" p-id="5857" fill="#515151"></path><path d="M476.21373 409.96v-101.5c0-15.477 8.998-27.715 22.675-32.394 13.318-4.679 28.435-0.36 37.433 10.798 5.759 7.199 7.559 15.477 7.559 24.475v179.605c0 5.04 1.44 8.638 5.039 12.238 39.952 39.592 79.904 79.544 119.856 119.496 15.117 15.477 14.757 38.153-0.36 51.11-13.317 11.518-32.393 11.158-45.71-1.08-9.359-8.998-18.357-18.356-27.355-27.354-34.914-34.913-69.827-70.186-105.1-105.1-9.718-9.718-14.037-20.156-14.037-33.833 0.36-32.034 0-64.067 0-96.461z m0 0" p-id="5858" fill="#515151"></path></svg>