<?xml version="1.0" standalone="no"?><!DOCTYPE svg PUBLIC "-//W3C//DTD SVG 1.1//EN" "http://www.w3.org/Graphics/SVG/1.1/DTD/svg11.dtd"><svg t="1725712522168" class="icon" viewBox="0 0 1024 1024" version="1.1" xmlns="http://www.w3.org/2000/svg" p-id="4578" xmlns:xlink="http://www.w3.org/1999/xlink" width="200" height="200"><path d="M368 384c14.16 0 26.896-6.144 35.68-15.888L464 301.088V592a48 48 0 1 0 96 0V301.088l60.32 67.024a48 48 0 1 0 71.36-64.224l-144-160C538.912 134.144 526.16 128 512 128s-26.896 6.144-35.68 15.888l-144 160A48 48 0 0 0 368 384z m512 176a48 48 0 0 0-48 48v192H192V608a48 48 0 1 0-96 0v240a48 48 0 0 0 48 48h736a48 48 0 0 0 48-48V608a48 48 0 0 0-48-48z" fill="#515151" p-id="4579"></path></svg>