<?xml version="1.0" standalone="no"?><!DOCTYPE svg PUBLIC "-//W3C//DTD SVG 1.1//EN" "http://www.w3.org/Graphics/SVG/1.1/DTD/svg11.dtd"><svg t="1725712535856" class="icon" viewBox="0 0 1024 1024" version="1.1" xmlns="http://www.w3.org/2000/svg" p-id="4788" xmlns:xlink="http://www.w3.org/1999/xlink" width="200" height="200"><path d="M309.333333 330.666667a202.666667 202.666667 0 1 1 405.333334 0 202.666667 202.666667 0 0 1-405.333334 0zM512 192a138.666667 138.666667 0 1 0 0 277.333333 138.666667 138.666667 0 0 0 0-277.333333z" p-id="4789" fill="#515151"></path><path d="M512 618.666667a309.461333 309.461333 0 0 0-303.872 251.306666 32 32 0 0 1-62.890667-11.946666A373.461333 373.461333 0 0 1 512 554.666667a32 32 0 0 1 0 64zM885.76 642.517333a32 32 0 0 0-45.312-45.226666L742.4 695.253333l-98.048-98.048a32 32 0 0 0-45.226667 45.226667l98.048 98.090667-98.048 98.048a32 32 0 1 0 45.226667 45.226666l98.048-98.005333 98.090667 98.048a32 32 0 1 0 45.226666-45.269333l-98.048-98.048 98.048-98.048z" p-id="4790" fill="#515151"></path></svg>