<?xml version="1.0" standalone="no"?><!DOCTYPE svg PUBLIC "-//W3C//DTD SVG 1.1//EN" "http://www.w3.org/Graphics/SVG/1.1/DTD/svg11.dtd">
<svg t="1722720213002" class="icon" viewBox="0 0 1024 1024" version="1.1" xmlns="http://www.w3.org/2000/svg" p-id="20309" width="200" height="200"><path d="M928.229 864.193c0 26.515-21.512 48.026-48.026 48.026L143.798 912.219c-26.515 0-48.026-21.512-48.026-48.026L95.772 704.105c0-26.515 21.512-48.026 48.026-48.026l213.617 0c13.507 37.021 49.027 64.035 90.55 64.035l128.07 0c41.522 0 77.042-27.015 90.55-64.035l213.617 0c26.515 0 48.026 21.512 48.026 48.026L928.228 864.193zM736.123 399.938l-128.07 0 0 224.123c0 17.51-14.508 32.018-32.018 32.018l-128.07 0c-17.51 0-32.018-14.508-32.018-32.018L415.947 399.938l-128.07 0c-13.007 0-24.514-8.004-29.516-20.011-5.003-11.506-2.501-25.514 7.004-34.519l224.124-224.123c6.002-6.504 14.508-9.505 22.512-9.505s16.51 3.001 22.512 9.505l224.124 224.123c9.505 9.005 12.006 23.013 7.004 34.519C760.637 391.934 749.13 399.938 736.123 399.938zM704.105 784.149c-17.51 0-32.018 14.508-32.018 32.018s14.508 32.018 32.018 32.018 32.018-14.508 32.018-32.018S721.615 784.149 704.105 784.149zM832.176 784.149c-17.51 0-32.018 14.508-32.018 32.018s14.508 32.018 32.018 32.018 32.018-14.508 32.018-32.018S849.686 784.149 832.176 784.149z" p-id="20310" fill="#444444"></path></svg>