<?xml version="1.0" standalone="no"?><!DOCTYPE svg PUBLIC "-//W3C//DTD SVG 1.1//EN" "http://www.w3.org/Graphics/SVG/1.1/DTD/svg11.dtd"><svg t="1686072218333" class="icon" viewBox="0 0 1024 1024" version="1.1" xmlns="http://www.w3.org/2000/svg" p-id="5923" xmlns:xlink="http://www.w3.org/1999/xlink" width="200" height="200"><path d="M810.666667 516.266667v290.133333a4.266667 4.266667 0 0 1-4.266667 4.266667H217.6a4.266667 4.266667 0 0 1-4.266667-4.266667v-290.133333a4.266667 4.266667 0 0 0-4.266666-4.266667H132.266667a4.266667 4.266667 0 0 0-4.266667 4.266667v375.466666a4.266667 4.266667 0 0 0 4.266667 4.266667h759.466666a4.266667 4.266667 0 0 0 4.266667-4.266667v-375.466666a4.266667 4.266667 0 0 0-4.266667-4.266667h-76.8a4.266667 4.266667 0 0 0-4.266666 4.266667zM473.6 682.666667h76.8a4.266667 4.266667 0 0 0 4.266667-4.266667V302.933333a4.266667 4.266667 0 0 1 4.266666-4.266666h113.493334c3.84 0 5.717333-4.608 2.986666-7.253334l-160.426666-160.426666a4.266667 4.266667 0 0 0-6.016 0L348.586667 291.413333a4.266667 4.266667 0 0 0 2.986666 7.296h113.493334a4.266667 4.266667 0 0 1 4.266666 4.266667v375.466667a4.266667 4.266667 0 0 0 4.266667 4.266666z" p-id="5924"></path></svg>